<svg width="28" height="21" viewBox="0 0 28 21" fill="none" xmlns="http://www.w3.org/2000/svg">
<g clip-path="url(#clip0_27_1351)">
<path d="M14.0656 0C8.38084 0 3.77197 4.70085 3.77197 10.5C3.77197 16.2986 8.38084 20.9998 14.0656 20.9998C19.7507 20.9998 24.3595 16.2989 24.3595 10.5C24.3595 4.70085 19.7507 0 14.0656 0Z" fill="#570514"/>
<path d="M14.0655 20.6154C8.58847 20.6154 4.14844 16.087 4.14844 10.4998C4.14844 4.9134 8.58847 0.384155 14.0655 0.384155C19.5431 0.384155 23.9831 4.9134 23.9831 10.4998C23.9831 16.0873 19.5431 20.6154 14.0655 20.6154Z" fill="#7D0521"/>
<path d="M7.45548 5.89868L6.45473 5.12523L6.63284 4.88584L7.03308 5.19516L7.03518 5.1921L6.76606 4.70629L6.94807 4.4614L7.22766 5.02049L7.95869 5.2208L7.7707 5.47424L7.32435 5.33684L7.38603 5.46814L7.63269 5.65898L7.45548 5.89868ZM8.27271 4.88064L7.37914 3.9817L7.58569 3.76734L8.47927 4.6666L8.27271 4.88064ZM9.28214 3.4907L9.28514 3.48886L8.83311 2.71206L9.05732 2.54259L9.63898 3.69681L9.37344 3.89834L8.77294 3.23054L8.77055 3.23268L9.22047 4.01437L8.95824 4.21346L8.04012 3.31482L8.26822 3.14168L8.86604 3.80918V3.80398L8.43676 3.01344L8.66547 2.83939L9.28214 3.4907ZM10.2329 2.32304C10.2243 2.30521 10.2149 2.28778 10.2048 2.27083C10.1956 2.25411 10.1836 2.23914 10.1694 2.22655C10.1568 2.21453 10.141 2.20666 10.1239 2.20396C10.1038 2.201 10.0833 2.20486 10.0656 2.21495C10.0482 2.22233 10.0336 2.23516 10.0238 2.25157C10.0141 2.26798 10.0097 2.28713 10.0114 2.30625C10.012 2.32547 10.0157 2.34446 10.0224 2.36243C10.0296 2.38075 10.0368 2.39999 10.0455 2.41739L10.2736 2.88885C10.2811 2.90473 10.291 2.92214 10.3026 2.94076C10.3137 2.95908 10.3266 2.97466 10.341 2.98779C10.3548 3.00071 10.3717 3.00957 10.3901 3.01344C10.4101 3.01751 10.4308 3.01427 10.4487 3.00427C10.4673 2.99592 10.4824 2.98109 10.4912 2.96244C10.4984 2.94544 10.5012 2.92682 10.4993 2.9084C10.4973 2.88796 10.4924 2.86792 10.485 2.84885C10.4775 2.8303 10.4695 2.81197 10.461 2.79389L10.2329 2.32304ZM10.714 2.63816C10.7454 2.70228 10.7666 2.76274 10.7786 2.81771C10.7906 2.87328 10.7903 2.92458 10.7786 2.9713C10.7651 3.0201 10.7395 3.06456 10.7044 3.10046C10.6679 3.14046 10.6158 3.1771 10.5487 3.21069C10.4817 3.24428 10.4215 3.26413 10.3679 3.27023C10.314 3.27634 10.2652 3.27023 10.2212 3.25252C10.174 3.23216 10.1323 3.20041 10.0997 3.16C10.0595 3.1107 10.0254 3.05655 9.9982 2.99878L9.77248 2.53221C9.7186 2.42045 9.70872 2.31999 9.74195 2.22991C9.77578 2.14044 9.85092 2.06624 9.96647 2.00792C10.0823 1.94929 10.185 1.93464 10.2742 1.96212C10.3634 1.99082 10.4344 2.06044 10.4879 2.17159L10.714 2.63816ZM11.548 1.80761C11.542 1.78929 11.536 1.77005 11.5282 1.75112C11.5216 1.73344 11.5123 1.71695 11.5007 1.70227C11.4896 1.68852 11.4751 1.67799 11.4588 1.67173C11.4391 1.66563 11.418 1.66649 11.3989 1.67417C11.3797 1.67922 11.3626 1.69034 11.3501 1.70593C11.3403 1.72048 11.3341 1.73725 11.3321 1.75479C11.3297 1.7739 11.3304 1.79327 11.3339 1.81219C11.3378 1.83265 11.3429 1.85189 11.348 1.87021L11.4998 2.37251C11.5052 2.39022 11.5123 2.40884 11.5207 2.429C11.5283 2.44769 11.5385 2.46517 11.551 2.48091C11.5632 2.49679 11.5782 2.50808 11.5956 2.51511C11.6147 2.52225 11.6357 2.52225 11.6548 2.51511C11.6746 2.51017 11.6919 2.49813 11.7036 2.48121C11.7133 2.46549 11.719 2.44753 11.7201 2.429C11.7209 2.40839 11.7191 2.38776 11.7147 2.36762C11.7106 2.34807 11.7056 2.32871 11.6997 2.30961L11.548 1.80761ZM11.9736 2.19724C11.9946 2.26533 12.0066 2.32854 12.0096 2.38472C12.0126 2.44213 12.0042 2.4922 11.9853 2.53618C11.9646 2.58229 11.9326 2.62223 11.8925 2.65221C11.8405 2.68968 11.7826 2.71777 11.7213 2.73526C11.6609 2.75612 11.5974 2.76614 11.5336 2.76488C11.4835 2.76304 11.4347 2.74868 11.3914 2.72305C11.3479 2.69532 11.3117 2.65716 11.286 2.6119C11.254 2.55702 11.2288 2.49823 11.2112 2.43694L11.0609 1.93922C11.025 1.82044 11.031 1.71998 11.0777 1.63692C11.1253 1.55326 11.2106 1.49188 11.3339 1.4531C11.4576 1.41432 11.5614 1.41615 11.6447 1.45829C11.7285 1.50074 11.7877 1.58104 11.8237 1.69952L11.9736 2.19724ZM12.5607 2.47022L12.4146 1.19875L12.8268 1.14928L13.0645 1.88273L13.0675 1.88181L13.1378 1.11233L13.5468 1.06348L13.6928 2.33464L13.4135 2.36823L13.3288 1.3676L13.3258 1.36822L13.2339 2.38991L13.0163 2.41587L12.7005 1.44303H12.6975L12.8382 2.43694L12.5607 2.47022ZM14.9501 2.38655L15.1489 1.12241L15.4399 1.17004L15.3635 1.65524L15.5653 1.68853L15.6413 1.20302L15.9323 1.25035L15.7335 2.5145L15.4426 2.46686L15.5252 1.94074L15.3237 1.90807L15.2408 2.43388L14.9501 2.38655ZM16.2059 2.63419L16.5921 1.41707L17.2339 1.62868L17.1561 1.87235L16.7948 1.75265L16.7238 1.97708L17.0741 2.09281L16.9965 2.33587L16.6463 2.22014L16.5631 2.48335L16.9432 2.60915L16.8666 2.85282L16.2059 2.63419ZM17.8967 2.51358L17.9859 2.55938C18.0022 2.56877 18.0208 2.57302 18.0395 2.5716C18.0555 2.56991 18.0709 2.56402 18.0841 2.5545C18.0987 2.54408 18.1112 2.53104 18.1212 2.51602C18.132 2.50032 18.1416 2.48378 18.1499 2.46656C18.1644 2.44031 18.1742 2.41168 18.179 2.38197C18.1824 2.3612 18.1781 2.33989 18.167 2.32213C18.1544 2.30296 18.1373 2.28732 18.1173 2.27663C18.0905 2.26099 18.0632 2.24643 18.0353 2.23296L17.8967 2.51358ZM17.5713 3.17039L17.3085 3.03481L17.8742 1.89219L18.2577 2.08945C18.3667 2.14533 18.4355 2.21098 18.4649 2.28671C18.4945 2.36304 18.4807 2.4577 18.4248 2.57129C18.3942 2.63236 18.3589 2.67969 18.3188 2.71328C18.2778 2.74748 18.2242 2.76274 18.1565 2.76L18.1553 2.76336C18.1865 2.78812 18.2096 2.82184 18.2218 2.86015C18.2326 2.8993 18.2293 2.94113 18.2125 2.97802L18.1751 3.06596L18.129 3.17039L18.0853 3.27207C18.0741 3.29784 18.0647 3.32437 18.0571 3.35146C18.0556 3.36932 18.0578 3.38731 18.0634 3.40428L18.0557 3.41955L17.7683 3.27176C17.7707 3.25863 17.7722 3.24611 17.7752 3.2339C17.778 3.22181 17.7818 3.20997 17.7865 3.19848C17.8093 3.14657 17.8329 3.09832 17.856 3.05374C17.879 3.00916 17.8979 2.96824 17.9114 2.93008C17.9238 2.89909 17.9299 2.86584 17.9293 2.83236C17.9272 2.80488 17.9114 2.78168 17.8814 2.76397L17.7946 2.71938L17.5713 3.17039ZM19.351 3.21588C19.362 3.1997 19.3728 3.18351 19.383 3.1658C19.393 3.1497 19.4003 3.13207 19.4048 3.11359C19.4088 3.09645 19.4083 3.07856 19.4033 3.06168C19.3963 3.04198 19.3832 3.02515 19.3659 3.01374C19.3503 3.00123 19.3313 2.99407 19.3114 2.99328C19.2939 2.99401 19.2768 2.99893 19.2614 3.00763C19.2456 3.01775 19.2312 3.03008 19.2186 3.04428C19.2049 3.05954 19.1926 3.07481 19.1815 3.09038L18.8795 3.51665C18.8693 3.53131 18.8585 3.54841 18.8477 3.56734C18.8374 3.585 18.8297 3.60415 18.825 3.62413C18.8205 3.64263 18.8208 3.66199 18.8259 3.68032C18.8319 3.70032 18.8446 3.71752 18.8618 3.72887C18.8774 3.74177 18.8971 3.74849 18.9172 3.7478C18.9354 3.74619 18.9529 3.73989 18.9681 3.72948C18.985 3.71834 19.0001 3.70464 19.013 3.68887C19.0265 3.67207 19.0387 3.65681 19.0489 3.64154L19.351 3.21588ZM19.3022 3.79696C19.2609 3.85498 19.2189 3.90261 19.1764 3.93956C19.1383 3.97373 19.0927 3.99812 19.0435 4.01071C18.9949 4.02167 18.9444 4.01957 18.8968 4.0046C18.8362 3.98514 18.7794 3.95507 18.7289 3.91574C18.6763 3.87859 18.6302 3.83278 18.5924 3.78017C18.5635 3.73829 18.5455 3.68967 18.54 3.63879C18.5349 3.59085 18.543 3.53986 18.5625 3.48673C18.5834 3.43329 18.6145 3.37772 18.6553 3.3197L18.9546 2.89771C19.0259 2.79694 19.1079 2.74106 19.2016 2.72977C19.2956 2.71816 19.3947 2.75114 19.4994 2.82839C19.6045 2.90565 19.6653 2.99115 19.6826 3.08428C19.7 3.17741 19.6728 3.27481 19.6012 3.37527L19.3022 3.79696ZM19.4348 4.45071L20.3161 3.53894L20.7962 4.022L20.6202 4.2043L20.3496 3.93193L20.1874 4.09987L20.4499 4.36338L20.2733 4.54598L20.0113 4.28216L19.8206 4.47911L20.1053 4.76553L19.9296 4.94813L19.4348 4.45071ZM20.7181 5.24523L20.6475 5.29958C20.6337 5.31006 20.6212 5.32204 20.61 5.33531C20.5992 5.34712 20.5911 5.36118 20.5861 5.37653C20.5811 5.39201 20.5804 5.4086 20.584 5.42447C20.5884 5.44428 20.5972 5.46277 20.6097 5.47852C20.6307 5.506 20.6555 5.51883 20.6858 5.51577C20.7157 5.51272 20.7436 5.50142 20.769 5.48127C20.7886 5.46749 20.8044 5.44877 20.8148 5.42691C20.824 5.40753 20.8299 5.38666 20.8322 5.36523C20.8344 5.34307 20.8339 5.32071 20.8307 5.29867C20.8283 5.2757 20.8263 5.2527 20.8247 5.22966C20.818 5.18042 20.8134 5.13091 20.8109 5.08126C20.8087 5.03659 20.8123 4.99182 20.8217 4.94813C20.8316 4.90599 20.8477 4.8669 20.8699 4.83026C20.8926 4.79362 20.9259 4.7585 20.9711 4.72431C21.0654 4.65194 21.1558 4.62354 21.2435 4.64095C21.3306 4.65774 21.409 4.71331 21.4779 4.80675C21.5162 4.85866 21.5419 4.91057 21.5551 4.96248C21.5683 5.01439 21.5695 5.06385 21.5593 5.11149C21.5494 5.15943 21.5294 5.20432 21.4982 5.24706C21.4644 5.29156 21.4236 5.32996 21.3773 5.36065L21.2147 5.13958L21.2585 5.10141C21.2738 5.089 21.2873 5.0744 21.2986 5.05805C21.3091 5.04336 21.3156 5.02608 21.3174 5.00798C21.3181 4.9873 21.3122 4.96697 21.3007 4.94996C21.2842 4.9237 21.2647 4.90813 21.2423 4.90355C21.218 4.899 21.1929 4.90414 21.1722 4.9179C21.1393 4.93713 21.1189 4.96126 21.1118 4.98904C21.1041 5.02006 21.1011 5.05207 21.1028 5.08401C21.1076 5.15179 21.1148 5.21225 21.1219 5.26539C21.1297 5.31882 21.1309 5.3692 21.1261 5.41684C21.1209 5.46533 21.1057 5.51214 21.0815 5.55425C21.0567 5.59699 21.0136 5.64219 20.9525 5.68952C20.8552 5.76402 20.7615 5.79486 20.6714 5.78173C20.5813 5.76799 20.499 5.71119 20.4256 5.61074C20.3892 5.56385 20.3609 5.51098 20.3418 5.4544C20.3267 5.40907 20.3213 5.36096 20.326 5.31332C20.3303 5.2716 20.3438 5.23142 20.3655 5.19577C20.3873 5.16065 20.4146 5.13042 20.4475 5.10508L20.5544 5.02263L20.7181 5.24523ZM6.71577 14.8579C6.78671 14.8176 6.85227 14.7715 6.80617 14.69C6.77833 14.6396 6.74031 14.6191 6.68733 14.6494C6.62746 14.6842 6.62566 14.7361 6.62297 14.7999C6.61997 14.8671 6.61219 14.992 6.59513 15.0564C6.57477 15.1361 6.53616 15.1801 6.4685 15.2195C6.31972 15.3059 6.18651 15.25 6.10479 15.1034C6.0048 14.9242 6.06766 14.803 6.20776 14.7217L6.26523 14.6882L6.34846 14.8378L6.30235 14.8643C6.22452 14.9056 6.18202 14.9611 6.22303 15.0353C6.25835 15.0979 6.30745 15.1086 6.36672 15.075C6.41342 15.0475 6.43258 15.0082 6.43737 14.9544C6.45323 14.8414 6.44216 14.7196 6.48676 14.6136C6.50815 14.5681 6.54259 14.5301 6.58555 14.5049C6.71996 14.4277 6.83581 14.4616 6.92382 14.6198C7.05673 14.8579 6.87323 14.9562 6.7963 15.002L6.71577 14.8579ZM6.41491 15.5862L7.15882 15.064L7.42763 15.4619L7.31897 15.5392L7.14534 15.2821L6.95794 15.4134L7.1175 15.6503L7.00853 15.7269L6.84898 15.4897L6.61968 15.6512L6.7933 15.9077L6.68433 15.9841L6.41491 15.5862ZM7.20072 16.1456C7.14294 16.1947 7.05344 16.2787 7.12708 16.3691C7.20401 16.4638 7.30041 16.3844 7.36716 16.3279L7.54528 16.1767C7.60066 16.13 7.72639 16.0286 7.64646 15.9303C7.56175 15.8265 7.44739 15.9376 7.39351 15.9828L7.20072 16.1456ZM7.25401 15.8714C7.43572 15.7269 7.57911 15.6298 7.75094 15.8415C7.92367 16.0531 7.80302 16.1789 7.6306 16.3346L7.53181 16.4183C7.34621 16.5749 7.19923 16.6754 7.0229 16.458C6.84569 16.2409 6.96932 16.1117 7.15462 15.955L7.25401 15.8714ZM8.36072 16.5438L8.48076 16.6653L8.03772 17.1215C7.89703 17.2665 7.78387 17.2888 7.62701 17.1303C7.46835 16.9709 7.48931 16.8558 7.63 16.7105L8.07304 16.2537L8.19339 16.3746L7.76022 16.8204C7.69915 16.8836 7.64227 16.9502 7.724 17.0329C7.80153 17.1117 7.86708 17.0528 7.92815 16.9902L8.36072 16.5438ZM8.08202 17.5349L8.65799 16.8253L8.78731 16.9352L8.29636 17.5404L8.53734 17.7441L8.45352 17.8479L8.08202 17.5349ZM9.03158 18.2733L9.50606 17.4897L9.64915 17.5798L9.46145 17.8903L9.66233 18.0165L9.85002 17.7062L9.99371 17.7963L9.51923 18.5807L9.37554 18.4897L9.59258 18.1319L9.392 18.0055L9.17467 18.3636L9.03158 18.2733ZM9.79255 18.7322L10.1961 17.9084L10.6206 18.1245L10.5616 18.2458L10.2883 18.1059L10.1859 18.3136L10.4382 18.4424L10.379 18.5633L10.1269 18.4348L10.0027 18.6888L10.2763 18.8281L10.2167 18.949L9.79255 18.7322ZM10.8214 18.6345L10.9454 18.6839C10.998 18.701 11.0516 18.6824 11.0843 18.5966C11.1211 18.5004 11.0881 18.4687 11.0292 18.4443L10.9124 18.3981L10.8214 18.6345ZM10.7735 18.7603L10.6322 19.1304L10.4751 19.0672L10.8035 18.2094L11.1007 18.3285C11.2366 18.3817 11.3217 18.4708 11.2609 18.629C11.225 18.7224 11.1636 18.8116 11.0525 18.7847L11.0516 18.7869C11.1396 18.8366 11.145 18.9084 11.113 18.9905C11.0995 19.0262 11.0145 19.2348 11.043 19.2754L11.037 19.291L10.8639 19.2223C10.866 19.1597 10.9097 19.0559 10.9304 18.9985C10.9499 18.945 10.9783 18.8736 10.9304 18.8357C10.8924 18.8067 10.8463 18.7893 10.8014 18.7716L10.7735 18.7603ZM11.5587 19.1261C11.5381 19.1994 11.5108 19.3206 11.6222 19.3521C11.7387 19.3853 11.7728 19.2641 11.7964 19.1789L11.8593 18.9517C11.8788 18.8812 11.9254 18.7246 11.8051 18.6907C11.6776 18.6534 11.6452 18.8113 11.6264 18.88L11.5587 19.1261ZM11.4495 18.869C11.5186 18.6446 11.5824 18.4818 11.8422 18.5572C12.1015 18.6311 12.0727 18.8043 12.0171 19.0317L11.9823 19.1582C11.9174 19.3945 11.8521 19.5624 11.5857 19.4858C11.3187 19.4095 11.3492 19.2317 11.4145 18.9951L11.4495 18.869ZM12.1718 19.6128L12.3359 18.7069L12.8029 18.7948L12.7786 18.9273L12.4778 18.8705L12.4362 19.0992L12.7134 19.1517L12.6894 19.2843L12.4128 19.2324L12.3619 19.5111L12.6628 19.5679L12.6388 19.7005L12.1718 19.6128ZM13.3234 19.1371C13.3324 19.0559 13.333 18.974 13.2405 18.9649C13.1845 18.96 13.1462 18.9792 13.1402 19.0412C13.1336 19.1108 13.1741 19.1426 13.2237 19.1817C13.2755 19.2223 13.3704 19.3011 13.4129 19.3521C13.465 19.4153 13.4782 19.4714 13.4704 19.5518C13.454 19.7252 13.3327 19.8043 13.1687 19.7884C12.9672 19.7682 12.9061 19.6464 12.9217 19.4824L12.9283 19.4153L13.0959 19.4314L13.0908 19.4858C13.0789 19.5743 13.0992 19.6424 13.1815 19.6501C13.2522 19.6571 13.2896 19.6226 13.2962 19.5527C13.3013 19.4992 13.2806 19.4598 13.2405 19.4253C13.1597 19.3466 13.0555 19.2861 12.9956 19.1875C12.972 19.1432 12.9616 19.0929 12.9657 19.0427C12.9807 18.8858 13.0753 18.8091 13.2525 18.8265C13.5198 18.8534 13.4926 19.0629 13.4851 19.153L13.3234 19.1371ZM14.3745 19.6702C14.4098 19.669 14.4457 19.6708 14.4754 19.6562C14.5203 19.6339 14.5238 19.5734 14.5218 19.5261C14.5182 19.4269 14.4978 19.3856 14.393 19.3902L14.3275 19.393L14.3383 19.6718L14.3745 19.6702ZM14.3535 19.2565C14.3945 19.2553 14.4472 19.2553 14.4727 19.2198C14.4876 19.196 14.4885 19.1633 14.4867 19.1191C14.4843 19.0504 14.4688 19.0171 14.3915 19.018L14.3137 19.0211L14.3221 19.2577L14.3535 19.2565ZM14.1751 19.8131L14.1395 18.8925L14.4113 18.8815C14.484 18.8785 14.555 18.8806 14.6059 18.9414C14.646 18.9905 14.6538 19.0427 14.6565 19.1053C14.6595 19.1847 14.646 19.2644 14.5556 19.3023V19.305C14.6511 19.3145 14.6906 19.3942 14.6951 19.5133C14.6963 19.5518 14.696 19.5896 14.6873 19.6263C14.6559 19.7447 14.5924 19.7963 14.4724 19.8015L14.1751 19.8131ZM15.1339 19.3765L15.2773 19.3575L15.1995 19.1041C15.1857 19.0626 15.1764 19.0217 15.1663 18.9795C15.1623 18.9593 15.1576 18.9392 15.1522 18.9194L15.1501 18.92C15.1501 18.9395 15.1501 18.9606 15.1519 18.9817C15.1522 19.0244 15.154 19.0666 15.151 19.1105L15.1339 19.3765ZM14.9307 19.7753L15.0286 18.8333L15.254 18.8033L15.5734 19.6904L15.3938 19.7136L15.3204 19.4882L15.1247 19.5139L15.1103 19.7514L14.9307 19.7753ZM16.0149 18.9411C15.9988 18.8604 15.9739 18.7832 15.8835 18.8033C15.8284 18.8159 15.7982 18.8467 15.8117 18.9078C15.8264 18.9762 15.8745 18.9933 15.9335 19.0149C15.9949 19.0372 16.1101 19.0821 16.1658 19.1169C16.2344 19.1606 16.264 19.2107 16.2808 19.2885C16.3179 19.4589 16.2269 19.5725 16.0658 19.6092C15.868 19.654 15.7731 19.5572 15.738 19.3966L15.7237 19.3301L15.8883 19.2934L15.8997 19.3463C15.9156 19.4342 15.9551 19.4916 16.0362 19.4736C16.1056 19.4577 16.1302 19.4134 16.1155 19.3444C16.1044 19.2925 16.0727 19.2611 16.0239 19.2409C15.9227 19.1921 15.8054 19.1676 15.7183 19.0925C15.6825 19.0579 15.6574 19.0133 15.6461 18.9643C15.6132 18.811 15.6791 18.7078 15.8527 18.6681C16.1149 18.6085 16.1529 18.8165 16.1736 18.9047L16.0149 18.9411ZM16.6092 19.447L16.3368 18.5685L16.7882 18.4226L16.8286 18.5517L16.537 18.6461L16.6056 18.8672L16.8744 18.7798L16.9145 18.9093L16.6457 18.996L16.7295 19.2666L17.0217 19.1722L17.0615 19.3011L16.6092 19.447ZM17.465 18.9982C17.497 18.9841 17.5318 18.9737 17.5542 18.9493C17.5887 18.9123 17.5716 18.8537 17.5542 18.8113C17.5168 18.7191 17.4833 18.6885 17.3866 18.7291L17.3261 18.7545L17.4315 19.0119L17.465 18.9982ZM17.3049 18.6174C17.3426 18.6018 17.3923 18.5838 17.4037 18.541C17.4096 18.5136 17.4001 18.4827 17.3833 18.4418C17.3576 18.3777 17.3312 18.3523 17.2591 18.3801L17.1869 18.4113L17.2758 18.6299L17.3049 18.6174ZM17.3261 19.203L16.9801 18.3523L17.2315 18.2458C17.2983 18.2171 17.3659 18.1939 17.4339 18.2333C17.4878 18.265 17.5135 18.3111 17.5375 18.3685C17.5674 18.4424 17.5815 18.5221 17.5099 18.589L17.5108 18.5911C17.6039 18.5667 17.6671 18.6278 17.7126 18.7374C17.727 18.7725 17.7389 18.8091 17.7437 18.8461C17.7545 18.9685 17.7129 19.0394 17.6015 19.087L17.3261 19.203ZM18.0757 18.4546L18.2035 18.3856L18.0437 18.1765C18.0167 18.1423 17.9949 18.1062 17.9706 18.0711C17.9602 18.0534 17.9482 18.0357 17.9377 18.0198L17.9353 18.0207C17.9419 18.0391 17.9497 18.0589 17.9578 18.0778C17.973 18.1181 17.9892 18.1572 18.0015 18.1987L18.0757 18.4546ZM18.0212 18.9001L17.7919 17.9823L17.9934 17.8742L18.5942 18.593L18.4343 18.6778L18.2885 18.4928L18.1137 18.5872L18.1805 18.8143L18.0212 18.9001ZM18.8052 18.4617L18.3167 17.687L18.4586 17.5935L18.8747 18.2555L19.1384 18.083L19.2103 18.1966L18.8052 18.4617ZM19.4318 18.0357L18.8834 17.3041L19.0172 17.1993L19.4851 17.8247L19.7341 17.6302L19.8141 17.7374L19.4318 18.0357ZM20.4984 16.6415C20.5092 16.6549 20.5217 16.6683 20.5322 16.6812C20.6433 16.8057 20.6939 16.9377 20.5613 17.0726C20.3652 17.2732 20.2281 17.1596 20.058 16.9859L19.9664 16.8931C19.8087 16.7221 19.7003 16.5859 19.8904 16.3911C19.9991 16.2836 20.1131 16.2787 20.2308 16.381C20.249 16.3953 20.2661 16.411 20.282 16.428L20.1643 16.548C20.1185 16.5114 20.0461 16.4289 19.9871 16.4894C19.8937 16.585 20.0131 16.6909 20.0619 16.741L20.2397 16.9215C20.2921 16.9749 20.3831 17.0583 20.4649 16.9746C20.5304 16.9074 20.417 16.8085 20.3784 16.7639L20.4984 16.6415ZM20.9178 16.6561L20.226 16.0638L20.3343 15.9315L20.9247 16.4372L21.1258 16.1929L21.2276 16.2799L20.9178 16.6561ZM20.8855 15.1917L20.9821 15.0509L21.4988 15.4189C21.6626 15.5355 21.7036 15.6448 21.5776 15.8302C21.4503 16.0161 21.3351 16.0155 21.171 15.8986L20.6538 15.5309L20.7504 15.3898L21.2555 15.7489C21.3264 15.7993 21.4012 15.8451 21.4668 15.7492C21.5297 15.6576 21.4617 15.6027 21.3905 15.5511L20.8855 15.1917ZM21.8745 15.0579C21.8922 15.0268 21.9125 14.9969 21.9167 14.9633C21.9209 14.9123 21.8727 14.8769 21.8329 14.8543C21.7476 14.8051 21.7027 14.8024 21.6512 14.8946L21.6195 14.9526L21.8575 15.09L21.8745 15.0579ZM21.5192 14.8579C21.5398 14.8219 21.5677 14.7764 21.5512 14.7358C21.539 14.7098 21.5129 14.6927 21.4755 14.6707C21.4168 14.6369 21.38 14.632 21.3405 14.7004L21.3016 14.7694L21.5039 14.8863L21.5192 14.8579ZM21.8895 15.3062L21.1034 14.853L21.2375 14.6112C21.2728 14.5471 21.3123 14.486 21.3893 14.4747C21.4515 14.4649 21.4994 14.4857 21.5524 14.5159C21.6213 14.5556 21.6796 14.6091 21.6635 14.7074L21.6659 14.7086C21.724 14.6304 21.8111 14.6387 21.9125 14.6973C21.9455 14.7162 21.9769 14.737 22.0032 14.7639C22.085 14.853 22.0954 14.9355 22.0356 15.0424L21.8895 15.3062Z" fill="white"/>
<path d="M14.0656 18.0522C9.97638 18.0522 6.66162 14.6708 6.66162 10.4997C6.66162 6.32864 9.97638 2.94751 14.0656 2.94751C18.1548 2.94751 21.4701 6.32894 21.4701 10.4997C21.4701 14.6708 18.1551 18.0522 14.0656 18.0522Z" fill="#570514"/>
<path d="M16.7541 17.1161C13.1696 18.63 9.06094 16.8944 7.57614 13.2382C6.09193 9.58283 7.79377 5.3913 11.3777 3.87708C14.9615 2.36346 19.0711 4.09876 20.5547 7.7544C22.0395 11.4106 20.338 15.6019 16.7541 17.1161Z" fill="white"/>
<path d="M8.02875 7.45362C8.04492 7.39316 8.09221 7.33667 8.13352 7.32629C8.16285 7.31896 8.18142 7.33697 8.18471 7.36904C8.18536 7.38587 8.18374 7.40272 8.17992 7.41911C8.13202 7.58919 8.03443 8.12508 8.03443 8.12508C8.03443 8.12508 7.75483 8.42402 7.62252 8.55959C7.58809 8.5944 7.55097 8.58341 7.5399 8.53547C7.53563 8.50824 7.53732 8.48038 7.54482 8.45388C7.55232 8.42739 7.56547 8.4029 7.58331 8.38218C7.68778 8.27379 7.79406 8.16264 7.90362 8.04264C7.93356 7.84324 7.97547 7.64629 8.02875 7.45362ZM8.29517 7.57942C8.30565 7.51621 8.35474 7.45148 8.40324 7.43499C8.44215 7.42217 8.4691 7.4414 8.47509 7.47988C8.47658 7.4931 8.47618 7.50647 8.47389 7.51957C8.44246 7.70065 8.40384 8.25699 8.40384 8.25699C8.40384 8.25699 8.10269 8.61456 7.9578 8.77486C7.91949 8.817 7.87219 8.81273 7.85303 8.76448C7.83357 8.71563 7.84824 8.64234 7.88656 8.59959C7.99881 8.47318 8.11406 8.33699 8.23231 8.19562C8.2392 7.98889 8.25985 7.78431 8.29517 7.57942ZM8.67176 7.67591C8.67503 7.64221 8.68659 7.6099 8.70538 7.58198C8.72417 7.55406 8.74958 7.53144 8.77923 7.51621C8.82833 7.49606 8.86665 7.51499 8.87503 7.56018C8.87689 7.56922 8.87769 7.57844 8.87742 7.58767C8.86874 7.76782 8.90167 8.33028 8.90167 8.33028C8.90167 8.33028 8.58824 8.73883 8.43467 8.9309C8.39486 8.98158 8.33738 8.98586 8.30595 8.94067C8.27632 8.89578 8.2838 8.81822 8.32391 8.76723C8.44515 8.61303 8.56519 8.45974 8.68613 8.29821C8.66685 8.09139 8.66215 7.88342 8.67206 7.67591M9.13696 7.70828C9.13187 7.64477 9.17797 7.5669 9.24083 7.53515C9.29891 7.50583 9.351 7.52507 9.36357 7.57789L9.36687 7.59316C9.38303 7.77515 9.49977 8.32966 9.49977 8.32966C9.49977 8.32966 9.18306 8.79288 9.02291 9.00998C8.98129 9.068 8.91274 9.08021 8.87143 9.03868C8.83072 8.99746 8.83162 8.91654 8.87263 8.85914C8.99537 8.68936 9.1187 8.51013 9.24114 8.32844C9.19025 8.12264 9.15492 7.91622 9.13666 7.70828M9.71172 7.76172C9.70335 7.73331 9.69566 7.7047 9.68867 7.67591C9.67221 7.61484 9.71442 7.53148 9.78327 7.4924C9.85212 7.45056 9.92217 7.46889 9.93834 7.53057C9.94582 7.55927 9.9536 7.58705 9.96198 7.61423C10.0048 7.7608 10.1985 8.24081 10.1985 8.24081C10.1985 8.24081 9.88894 8.75074 9.73059 8.99929C9.68868 9.06494 9.61084 9.08876 9.55546 9.05395C9.50187 9.01853 9.4917 8.937 9.53271 8.87044C9.65688 8.6743 9.77852 8.47652 9.89762 8.27714C9.82278 8.10615 9.76111 7.93302 9.71142 7.76172M10.6457 8.13668C10.52 7.95042 10.411 7.76049 10.3221 7.5669C10.2943 7.50736 10.332 7.42217 10.4035 7.37453C10.4781 7.32781 10.5592 7.33575 10.5876 7.39469C10.667 7.56232 10.9825 8.06554 10.9825 8.06554C10.9825 8.06554 10.7002 8.61669 10.546 8.88601C10.5047 8.95807 10.4173 8.99258 10.3508 8.96326C10.285 8.93395 10.264 8.85181 10.3047 8.77944C10.4236 8.56967 10.537 8.35287 10.646 8.13668M11.4689 7.90798C11.3098 7.74427 11.1618 7.56972 11.0259 7.38552C10.9867 7.33148 11.0139 7.24323 11.0882 7.18949C11.163 7.13514 11.2564 7.13453 11.2965 7.18888C11.4103 7.34094 11.8294 7.79988 11.8294 7.79988C11.8294 7.79988 11.5905 8.37486 11.4549 8.66494C11.4171 8.74341 11.325 8.78952 11.2468 8.76876C11.169 8.7483 11.1355 8.66891 11.1705 8.59165C11.2774 8.3605 11.377 8.13394 11.4689 7.90798ZM12.1033 8.29699C12.1901 8.05912 12.2679 7.82553 12.335 7.59469C12.1414 7.45119 11.956 7.29675 11.7794 7.13209C11.7279 7.08292 11.7443 6.99529 11.8171 6.93575C11.8889 6.8759 11.9916 6.86674 12.0434 6.91559C12.1907 7.04995 12.7026 7.38156 12.7026 7.38156C12.7026 7.38156 12.5302 8.04233 12.4194 8.34157C12.3895 8.4228 12.2946 8.47776 12.2071 8.46616C12.1209 8.45394 12.0736 8.37821 12.1033 8.29699ZM13.1893 8.07042C13.0974 8.06554 13.0394 7.99561 13.0606 7.91347C13.1197 7.6827 13.1684 7.44927 13.2064 7.21392C12.9828 7.09135 12.7647 6.95849 12.5529 6.81574C12.4909 6.77299 12.4948 6.68811 12.5637 6.62643C12.6322 6.56414 12.7373 6.54704 12.7996 6.58948C12.9774 6.70796 13.5635 6.99682 13.5635 6.99682C13.5635 6.99682 13.474 7.63194 13.3965 7.93088C13.3743 8.01271 13.2827 8.07439 13.1893 8.07042ZM13.9964 7.46492C14.0225 7.23863 14.0379 7.01118 14.0425 6.78338C13.7972 6.6818 13.5548 6.57305 13.3157 6.45726C13.2444 6.42184 13.2339 6.34123 13.2929 6.27741C13.3513 6.2136 13.4579 6.19008 13.5297 6.22459C13.7273 6.31894 14.3706 6.56566 14.3706 6.56566C14.3706 6.56566 14.3676 7.15621 14.3368 7.45056C14.3278 7.53057 14.2446 7.59835 14.1512 7.60232C14.0575 7.6069 13.9877 7.54492 13.9964 7.46492ZM14.86 6.96017C14.8543 6.74002 14.8316 6.52566 14.7987 6.32077C14.5391 6.24135 14.2816 6.15522 14.0263 6.06245C13.9476 6.03435 13.9246 5.95985 13.9739 5.89634C14.023 5.83405 14.1245 5.80595 14.2021 5.83405C14.4164 5.91191 15.0902 6.11344 15.0902 6.11344C15.0902 6.11344 15.1791 6.65238 15.1878 6.92872C15.189 7.00475 15.1184 7.07285 15.0277 7.0814C14.937 7.09086 14.8618 7.03621 14.86 6.96017ZM15.6129 6.43742C15.5721 6.23787 15.5177 6.04146 15.4501 5.84962C15.1839 5.78733 14.9208 5.7229 14.6637 5.65572C14.5825 5.63374 14.5439 5.56717 14.5813 5.5061C14.6164 5.44595 14.711 5.41358 14.7909 5.43557C15.0106 5.49236 15.6958 5.65603 15.6958 5.65603C15.6958 5.65603 15.8605 6.13085 15.9153 6.38703C15.9305 6.45726 15.8755 6.52536 15.7925 6.53971C15.7087 6.55314 15.6279 6.50826 15.6129 6.43742ZM16.2272 5.90947C16.1569 5.72689 16.0727 5.55025 15.9751 5.38121C15.7183 5.33969 15.4602 5.29419 15.201 5.24533C15.1184 5.23007 15.0705 5.17052 15.0935 5.11281C15.1169 5.05632 15.2004 5.02243 15.2809 5.03892C15.5025 5.08136 16.173 5.20106 16.173 5.20106C16.173 5.20106 16.2993 5.41663 16.3559 5.53083C16.4074 5.63374 16.4547 5.74061 16.4969 5.85054C16.5224 5.91313 16.4819 5.97848 16.408 5.99466C16.3338 6.01115 16.2523 5.9742 16.2272 5.90947ZM16.6999 5.40076C16.6016 5.23764 16.4926 5.08155 16.3736 4.93357C16.1266 4.90642 15.8798 4.87742 15.6333 4.84655C15.5536 4.83586 15.4959 4.78548 15.5057 4.73235C15.5147 4.68044 15.5866 4.64685 15.665 4.65601C15.8778 4.68349 16.5176 4.76136 16.5176 4.76136C16.5176 4.76136 16.8062 5.12777 16.9307 5.33297C16.9328 5.33541 16.9337 5.33755 16.9349 5.3406C16.9624 5.39434 16.9379 5.44992 16.878 5.46824C16.8451 5.47707 16.8104 5.47533 16.7786 5.46325C16.7468 5.45117 16.7194 5.42934 16.7002 5.40076M17.0271 4.91556C16.9109 4.77204 16.7816 4.63677 16.6463 4.51066C16.4218 4.49845 16.1907 4.48318 15.9524 4.46578C15.8769 4.46028 15.8132 4.41631 15.8117 4.36806C15.8087 4.32043 15.8686 4.28654 15.9434 4.29325C16.147 4.30852 16.7427 4.35127 16.7427 4.35127C16.7427 4.35127 17.075 4.66792 17.2211 4.84685C17.2255 4.85193 17.2294 4.85746 17.2327 4.86334C17.2582 4.90762 17.2447 4.95373 17.198 4.97052C17.1435 4.98884 17.0681 4.96563 17.0274 4.91556M17.2285 4.46791C17.0908 4.3412 16.9519 4.22669 16.8053 4.12012C16.6005 4.11798 16.3874 4.11432 16.1706 4.10974C16.0988 4.10882 16.0305 4.07218 16.0173 4.02882C16.0051 3.98638 16.0515 3.95401 16.1221 3.95523C16.308 3.95981 16.8558 3.97203 16.8558 3.97203C16.8558 3.97203 17.2166 4.24074 17.3839 4.39585C17.392 4.40345 17.3992 4.41195 17.4055 4.4212C17.4282 4.45601 17.4243 4.49173 17.3899 4.50853C17.3465 4.52868 17.2743 4.51036 17.2282 4.46761M20.1029 13.5398C20.0865 13.6 20.0395 13.6568 19.9979 13.6675C19.9688 13.6742 19.9503 13.6565 19.947 13.6244C19.9464 13.6076 19.9482 13.5907 19.9521 13.5743C19.9994 13.4049 20.0973 12.8678 20.0973 12.8678C20.0973 12.8678 20.3769 12.5691 20.5092 12.4342C20.543 12.3981 20.5807 12.4097 20.5918 12.4586C20.5961 12.4856 20.5945 12.5133 20.5869 12.5396C20.5794 12.5659 20.5663 12.5902 20.5484 12.6107C20.4436 12.7197 20.3376 12.8308 20.2275 12.9508C20.1975 13.1493 20.1556 13.3472 20.1029 13.5398ZM19.8365 13.414C19.826 13.4766 19.777 13.542 19.7279 13.5579C19.6895 13.571 19.6623 13.552 19.656 13.5139C19.6548 13.5003 19.6554 13.4867 19.6578 13.4733C19.6886 13.2925 19.7273 12.7362 19.7273 12.7362C19.7273 12.7362 20.029 12.3786 20.1736 12.2183C20.2125 12.1755 20.2592 12.1807 20.2784 12.229C20.2975 12.2775 20.2835 12.3511 20.2445 12.3939C20.1329 12.52 20.0173 12.6565 19.8994 12.7975C19.8926 13.0043 19.8716 13.2103 19.8365 13.414ZM19.4599 13.3175C19.4566 13.3512 19.445 13.3835 19.4262 13.4114C19.4075 13.4393 19.3821 13.462 19.3525 13.4772C19.3034 13.4974 19.2651 13.4785 19.2567 13.433C19.2543 13.4244 19.254 13.4153 19.2543 13.4052C19.2633 13.225 19.23 12.6626 19.23 12.6626C19.23 12.6626 19.5435 12.2543 19.697 12.0626C19.7371 12.0116 19.794 12.0076 19.8257 12.0528C19.8551 12.0974 19.8479 12.1749 19.8078 12.2256C19.6849 12.3806 19.564 12.5372 19.445 12.6952C19.465 12.9035 19.4692 13.1136 19.4599 13.3175ZM18.9947 13.2849C18.9995 13.349 18.9537 13.4262 18.8906 13.4583C18.8328 13.4876 18.7804 13.4678 18.7678 13.4162L18.7648 13.4003C18.7484 13.218 18.6313 12.6635 18.6313 12.6635C18.6313 12.6635 18.9486 12.2 19.1082 11.9829C19.1501 11.9248 19.219 11.9126 19.2597 11.9548C19.301 11.996 19.2998 12.0763 19.2585 12.1343C19.1363 12.3041 19.013 12.4827 18.8903 12.6647C18.9412 12.8705 18.9768 13.0769 18.995 13.2846M18.42 13.2314C18.4284 13.2601 18.4358 13.2885 18.443 13.3175C18.4589 13.3786 18.4173 13.462 18.3484 13.5011C18.2793 13.542 18.2095 13.5243 18.1934 13.4623C18.1856 13.4348 18.1781 13.4064 18.1697 13.3786C18.1266 13.2327 17.9332 12.752 17.9332 12.752C17.9332 12.752 18.2425 12.2427 18.4011 11.9942C18.443 11.9288 18.5206 11.9044 18.5762 11.9395C18.6295 11.9746 18.6397 12.0564 18.5984 12.1227C18.4739 12.3212 18.3529 12.5157 18.2338 12.716C18.3086 12.8864 18.3706 13.0601 18.4203 13.2314M17.4854 12.8568C17.6117 13.043 17.7207 13.2327 17.8093 13.4266C17.8368 13.4855 17.7994 13.571 17.7276 13.6189C17.6533 13.6659 17.5719 13.6568 17.5441 13.5985C17.4644 13.4308 17.1498 12.9276 17.1498 12.9276C17.1498 12.9276 17.4312 12.3768 17.5857 12.1071C17.627 12.0351 17.7141 12.0003 17.7809 12.0302C17.8467 12.0592 17.8677 12.1416 17.8269 12.2134C17.7084 12.4252 17.5943 12.6397 17.4854 12.8568ZM16.6634 13.0849C16.8219 13.2491 16.9696 13.4237 17.1058 13.6076C17.1447 13.662 17.1178 13.7493 17.0432 13.8037C16.9684 13.8586 16.8756 13.8592 16.8352 13.8046C16.7214 13.6522 16.3023 13.1936 16.3023 13.1936C16.3023 13.1936 16.5409 12.6192 16.6768 12.3276C16.7139 12.2497 16.8067 12.2033 16.8849 12.2238C16.9627 12.2445 16.9956 12.3245 16.9606 12.4015C16.854 12.6326 16.755 12.8595 16.6634 13.0849ZM16.0281 12.6958C15.9413 12.9343 15.8638 13.1679 15.7961 13.3985C15.9979 13.5475 16.1853 13.7053 16.3523 13.8614C16.4032 13.9102 16.3876 13.9972 16.3146 14.0568C16.2428 14.1173 16.1404 14.1264 16.0877 14.0776C15.9407 13.9432 15.4291 13.6122 15.4291 13.6122C15.4291 13.6122 15.6009 12.9511 15.712 12.6516C15.7419 12.57 15.8365 12.5151 15.9245 12.5273C16.0102 12.5401 16.0578 12.6149 16.0281 12.6958ZM14.9418 12.9236C15.0343 12.9276 15.0923 12.9978 15.0705 13.0794C15.0116 13.3104 14.963 13.544 14.925 13.7795C15.1567 13.9084 15.3734 14.0363 15.5785 14.1774C15.6408 14.2198 15.6369 14.3047 15.5677 14.367C15.4995 14.429 15.3941 14.4455 15.3318 14.4037C15.154 14.2852 14.5682 13.9969 14.5682 13.9969C14.5682 13.9969 14.6571 13.3615 14.7352 13.0623C14.7574 12.9807 14.849 12.9191 14.9418 12.9236ZM14.135 13.5282C14.1087 13.7545 14.0935 13.982 14.0892 14.2098C14.3434 14.3142 14.5879 14.4266 14.816 14.5365C14.887 14.5713 14.8972 14.651 14.8388 14.716C14.7804 14.7796 14.6738 14.8034 14.6014 14.7689C14.4044 14.6739 13.7608 14.4278 13.7608 14.4278C13.7608 14.4278 13.7641 13.8372 13.7955 13.5423C13.8042 13.4632 13.8865 13.3951 13.9802 13.3914C14.0748 13.3862 14.144 13.4479 14.135 13.5282ZM13.2717 14.0333C13.2776 14.2531 13.2995 14.4678 13.3327 14.6715C13.5968 14.7533 13.8545 14.8394 14.1051 14.9304C14.1835 14.9588 14.2071 15.0342 14.158 15.0962C14.1087 15.1597 14.0072 15.1878 13.9296 15.1597C13.7153 15.0815 13.0417 14.88 13.0417 14.88C13.0417 14.88 12.9525 14.3411 12.9436 14.0641C12.9424 13.9884 13.0133 13.9203 13.1037 13.9108C13.1944 13.9026 13.2702 13.9566 13.2717 14.0333ZM12.5182 14.5557C12.5619 14.764 12.6152 14.9582 12.6816 15.1438C12.9472 15.2064 13.2106 15.2706 13.468 15.3374C13.5492 15.3594 13.5878 15.426 13.5504 15.487C13.515 15.5475 13.4213 15.5793 13.3405 15.5579C13.1205 15.5008 12.4353 15.3374 12.4353 15.3374C12.4353 15.3374 12.2712 14.8629 12.2164 14.6064C12.2006 14.5362 12.2559 14.4681 12.3392 14.4541C12.423 14.44 12.5038 14.4849 12.5182 14.5557ZM11.9039 15.084C11.9745 15.2662 12.0588 15.4426 12.156 15.6116C12.4131 15.6538 12.6715 15.699 12.9307 15.7481C13.013 15.7634 13.0606 15.8226 13.0382 15.8806C13.0148 15.9365 12.9313 15.9707 12.8505 15.9542C12.5534 15.8994 12.2563 15.8453 11.959 15.7918C11.959 15.7918 11.8324 15.5768 11.7758 15.4623C11.7243 15.3594 11.677 15.2525 11.6342 15.1429C11.6093 15.08 11.6494 15.0147 11.7234 14.9982C11.7982 14.9823 11.8791 15.0196 11.9039 15.084ZM11.4318 15.5924C11.5333 15.76 11.6405 15.9136 11.7581 16.0599C12.005 16.0867 12.2517 16.1156 12.4981 16.1466C12.5778 16.1567 12.6355 16.2077 12.6259 16.2605C12.617 16.3133 12.5451 16.3472 12.4664 16.3377C12.2538 16.31 11.6135 16.2321 11.6135 16.2321C11.6135 16.2321 11.3253 15.8657 11.2004 15.6602C11.1986 15.658 11.1974 15.6554 11.1968 15.6525C11.1693 15.5991 11.1932 15.5432 11.2531 15.5246C11.2861 15.5159 11.321 15.5177 11.3529 15.5298C11.3849 15.5419 11.4124 15.5638 11.4318 15.5924ZM11.1046 16.0776C11.2208 16.2211 11.3501 16.3567 11.4848 16.4825C11.7096 16.495 11.9407 16.51 12.1793 16.5274C12.255 16.5329 12.3185 16.5765 12.3206 16.6251C12.3227 16.673 12.2628 16.7066 12.1889 16.7002C11.9844 16.6843 11.3887 16.6419 11.3887 16.6419C11.3887 16.6419 11.0564 16.3249 10.9106 16.1463C10.9062 16.1412 10.9021 16.1357 10.8987 16.1298C10.8732 16.0861 10.8867 16.0397 10.9337 16.0223C10.9882 16.0043 11.0636 16.0284 11.1043 16.0776M10.9032 16.5258C11.0409 16.6523 11.1798 16.7671 11.3261 16.8724C11.5306 16.8749 11.7443 16.8785 11.9608 16.8837C12.0326 16.8846 12.1009 16.9213 12.114 16.9646C12.1263 17.0068 12.0802 17.0394 12.0102 17.0379C11.8237 17.033 11.2759 17.0211 11.2759 17.0211C11.2759 17.0211 10.9151 16.7524 10.7478 16.5973C10.7399 16.5897 10.7326 16.5815 10.7259 16.5729C10.7032 16.5371 10.708 16.5014 10.7418 16.4849C10.7849 16.4651 10.8574 16.4828 10.9035 16.5258" fill="#7D0521"/>
<path d="M25.0775 6.93235L25.059 6.93387L24.1639 7.94671L24.0106 7.03158L21.7736 7.24166L21.6532 7.49571C21.4676 7.38121 21.2407 7.32105 20.9925 7.32105C20.9431 7.32105 20.8929 7.32411 20.8435 7.32808L19.435 7.45999C18.9812 7.50274 18.469 7.74091 18.0556 8.09878C17.8245 7.80076 17.426 7.64808 16.9764 7.69053L15.5676 7.82213L7.72391 8.55711L8.59653 7.57083L4.66629 7.93969L4.43818 8.4197L2.18643 8.63039L1.1797 10.7416L1.6467 10.6982L0.000244141 14.1398L2.55195 13.9016L3.06923 12.8201L3.69249 14.6968L6.08883 14.4723L5.79876 13.5975L6.68485 13.5148L7.79336 11.1978L7.68499 13.4204L9.73468 13.2286L9.75653 13.2265L10.078 12.7422L10.0562 13.1978L12.105 13.006L12.1268 13.0042L12.6211 12.2598C12.636 12.2909 12.6522 12.3208 12.6699 12.3498C12.8917 12.7117 13.2994 12.8934 13.8095 12.846L15.2081 12.716C15.6667 12.6726 16.1825 12.4335 16.5962 12.0738C16.8025 12.3444 17.1285 12.4921 17.5224 12.4921C17.5721 12.4921 17.6239 12.4897 17.6766 12.4845L19.0752 12.3538C19.3539 12.3276 19.6469 12.2341 19.9298 12.0833L19.8346 12.283L22.386 12.0439L22.5267 11.7511L22.6779 12.6558L23.294 11.9596L25.5661 11.7459L28.0004 6.65845L25.0775 6.93235Z" fill="#570514"/>
<path d="M4.21371 9.57387L4.51067 9.54578L3.8898 10.2475L4.21371 9.57387ZM5.09112 12.431L4.7319 11.3489L6.64268 9.18852L5.09112 12.431ZM16.02 9.37112L15.2686 10.9421L14.7657 10.9895L15.5171 9.41814L16.02 9.37112ZM19.8871 9.00928L19.1351 10.5809L18.6328 10.6276L19.3838 9.0563L19.8871 9.00928ZM25.2359 7.16742L25.218 7.16955L23.9526 8.59981L23.7365 7.30757L21.9897 7.47154L21.7428 7.99186C21.7312 7.96532 21.7177 7.9397 21.7023 7.91521C21.5661 7.69231 21.3153 7.56956 20.9968 7.56956C20.9573 7.56956 20.915 7.5717 20.8734 7.57567L19.465 7.70758C18.9255 7.75765 18.3178 8.12438 17.9392 8.61477C17.9328 8.4951 17.8971 8.37897 17.8353 8.27705C17.6991 8.05415 17.4482 7.93201 17.1288 7.93201C17.0893 7.93201 17.048 7.93415 17.0064 7.93751L15.5976 8.07003C15.3252 8.09537 15.021 8.20682 14.7372 8.3827L14.9019 8.13476L13.0665 8.30698L12.1706 9.65662L12.2328 8.38423L10.6957 8.52897L9.79998 9.87769L9.86195 8.60652L6.9121 8.88378L7.78442 7.89781L4.88247 8.17018L4.65346 8.64958L2.40141 8.86027L1.73265 10.264L2.20114 10.2206L0.554688 13.6619L2.33645 13.4952L3.12435 11.8478L3.92124 14.2491L5.64134 14.0875L5.35066 13.2127L6.46905 13.1086L7.89309 10.133L8.17268 10.1061L8.03379 12.9611L9.57038 12.8173L10.4654 11.4692L10.4044 12.7385L11.9407 12.595L13.2099 10.6832L12.974 11.177C12.8103 11.5196 12.8016 11.8414 12.9501 12.0835C13.0866 12.3061 13.3372 12.4292 13.6548 12.4292C13.6952 12.4292 13.7368 12.4267 13.779 12.4231L15.1779 12.2921C15.7248 12.2411 16.337 11.8725 16.7136 11.3791C16.7205 11.5052 16.7555 11.6203 16.8175 11.7217C16.971 11.9721 17.2689 12.0964 17.6464 12.0612L19.0447 11.9303C19.7182 11.867 20.4849 11.3177 20.7899 10.6792L21.6685 8.84287L21.8122 8.82943L20.3888 11.8044L22.1705 11.6383L22.6794 10.5763L22.8887 11.8258L24.037 10.5281L23.5688 11.5073L25.3506 11.3403L27.4458 6.9613L25.2359 7.16742Z" fill="#EB008A"/>
<path d="M7.24377 8.17394L5.02584 8.38219L4.5822 9.31381L5.05098 9.27045L3.19678 11.3664L4.07419 14.0092L5.34346 13.8901L4.48191 11.2961L7.24377 8.17394ZM25.3236 7.38492L23.8122 9.09396L23.5541 7.55011L22.1334 7.68325L21.6919 8.61548L22.1816 8.56815L20.7579 11.545L22.0271 11.4259L22.7821 9.85245L23.0294 11.3319L24.9198 9.19533L23.9379 11.2473L25.2072 11.1282L27.0767 7.22095L25.3236 7.38492Z" fill="white"/>
<path d="M6.9262 9.10763L5.05673 13.0152L6.32569 12.8964L8.19547 8.98854L6.9262 9.10763ZM2.54513 9.07282L2.10119 10.0041L2.57028 9.96108L0.923828 13.4018L2.19279 13.2836L4.28529 8.90976L2.54513 9.07282ZM15.412 11.1544L14.3966 11.2493L15.3737 9.20625L16.3888 9.1116L15.412 11.1544ZM17.0268 8.16135L15.618 8.29295C15.0561 8.34578 14.4044 8.79892 14.1044 9.32503L13.1717 11.2756C12.901 11.8414 13.1642 12.2558 13.7587 12.1996L15.1576 12.0686C15.753 12.0127 16.4547 11.5092 16.7253 10.9431L17.6138 9.08534C17.8847 8.51891 17.6219 8.10578 17.0268 8.16135ZM19.2788 10.7922L18.2631 10.8875L19.2408 8.84472L20.2559 8.74945L19.2788 10.7922ZM20.8938 7.7989L19.4851 7.93112C18.9235 7.98364 18.2712 8.43647 17.9715 8.9632L17.0387 10.9144C16.7681 11.4796 17.0312 11.8927 17.6261 11.8378L19.0247 11.7068C19.6195 11.6509 20.3215 11.1471 20.5921 10.5812L21.4809 8.72319C21.7518 8.15707 21.4889 7.74363 20.8938 7.7989ZM13.1902 8.52044L11.912 10.4463L12.0006 8.63189L10.8196 8.74243L9.54137 10.668L9.62968 8.85419L8.35742 8.97419L7.91318 9.90581L8.40532 9.85909L8.26641 12.7138L9.44648 12.6036L10.7238 10.6793L10.637 12.4924L11.8174 12.3813L14.4592 8.40166L13.1902 8.52044Z" fill="white"/>
<path d="M2.57017 9.96109L3.42782 9.43558L2.3232 9.53849L2.10107 10.0045L2.57017 9.96109ZM5.05092 9.27039L6.1768 8.72168L4.80396 8.84809L4.58214 9.31375L5.05092 9.27039Z" fill="#D1D1D1"/>
<path d="M7.2439 8.17394L6.177 8.72174L3.84741 11.3557L4.70956 13.9502L4.07432 14.0092L5.3436 13.8901L4.48204 11.2961L7.2439 8.17394ZM22.6251 8.91624L21.6154 11.0201L20.758 11.545L22.0273 11.4259L22.7822 9.85245L22.6251 8.91624ZM23.2705 9.70679L23.8123 9.09396L23.5543 7.55011L22.9804 7.97577L23.2705 9.70679ZM26.2191 7.74645L24.7957 10.7224L23.9384 11.2476L25.207 11.1285L27.0768 7.22095L26.2191 7.74645ZM25.6052 7.76264L23.4109 10.2415L23.0295 11.3319L24.9199 9.19533L25.6052 7.76264Z" fill="#D1D1D1"/>
<path d="M7.33542 9.52016L5.91348 12.4915L5.05703 13.0152L6.32599 12.8964L8.19577 8.98855L7.33542 9.52016ZM3.42793 9.43558L1.78148 12.8756L0.923828 13.4018L2.19279 13.2836L4.28529 8.90977L3.42793 9.43558ZM11.23 11.4732L11.912 10.4463L12.0006 8.6319L11.3435 9.1397L11.23 11.4732ZM10.7699 9.71284L9.12616 12.1892L8.26641 12.7138L9.44648 12.6036L10.7238 10.6793L10.7699 9.71284ZM13.509 8.93634L11.4968 11.9678L10.6367 12.4921L11.8174 12.3813L14.4592 8.40167L13.509 8.93634ZM8.40532 9.8591L8.97349 9.36138L8.1356 9.43925L7.91317 9.90582L8.40532 9.8591ZM22.1816 8.56808L22.9803 7.97571L21.9431 8.07311L21.6895 8.61541L22.1816 8.56808Z" fill="#D1D1D1"/>
<path d="M8.85913 11.6951L9.54166 10.6679L9.62967 8.85416L8.97348 9.36134L8.85913 11.6951ZM15.5961 8.74118L14.7388 9.26546L13.5381 11.7763L14.3966 11.2499L15.3737 9.20622L16.3888 9.11156L17.2462 8.58667L15.5961 8.74118Z" fill="#D1D1D1"/>
<path d="M17.6215 8.35707L17.2461 8.58669L16.0445 11.0985L15.1922 11.6219L13.538 11.7764L13.1653 12.0054C13.2784 12.1498 13.4826 12.2255 13.7586 12.1996L15.1575 12.0686C15.1865 12.0661 15.2165 12.0613 15.2461 12.0564C15.8206 11.9623 16.4675 11.4814 16.7249 10.9431L17.6137 9.08533C17.7586 8.78242 17.7505 8.5241 17.6215 8.35707ZM19.4634 8.37936L18.6061 8.90364L17.4054 11.4145L18.263 10.8875L19.2407 8.84471L20.2558 8.74944L21.1135 8.22424L19.4634 8.37936Z" fill="#D1D1D1"/>
<path d="M21.4889 7.99524L21.1135 8.22486L19.9116 10.7367L19.0596 11.26L17.4054 11.4145L17.033 11.6436C17.1458 11.788 17.3503 11.8631 17.626 11.8378L19.0246 11.7068C19.0539 11.7043 19.0835 11.6991 19.1132 11.6945C19.6873 11.6008 20.3346 11.1196 20.592 10.5812L21.4808 8.72319C21.626 8.42059 21.6176 8.16165 21.4889 7.99524Z" fill="#D1D1D1"/>
</g>
<defs>
<clipPath id="clip0_27_1351">
<rect width="28" height="21" fill="white"/>
</clipPath>
</defs>
</svg>
